<svg width="400" height="40" viewBox="0 0 400 40" fill="none" xmlns="http://www.w3.org/2000/svg">
<path fill-rule="evenodd" clip-rule="evenodd" d="M40.5579 6.73L37.979 2.12C37.6201 1.47979 37.0848 0.944316 36.4303 0.570886C35.7757 0.197455 35.0267 0.000120709 34.2632 0H7.73684C6.97335 0.000120709 6.22427 0.197455 5.56974 0.570886C4.91522 0.944316 4.37989 1.47979 4.02105 2.12L1.49474 6.62C1.17011 7.19867 1.00022 7.84428 1 8.5V36C1 37.0609 1.44361 38.0783 2.23323 38.8284C3.02286 39.5786 4.09383 40 5.21053 40H36.7895C37.9062 40 38.9771 39.5786 39.7668 38.8284C40.5564 38.0783 41 37.0609 41 36V8.5C40.9482 7.89208 40.7991 7.29522 40.5579 6.73ZM6.26316 4C6.26316 3.46957 6.48496 2.96086 6.87978 2.58579C7.27459 2.21071 7.81007 2 8.36842 2H33.6316C34.1899 2 34.7254 2.21071 35.1202 2.58579C35.515 2.96086 35.7368 3.46957 35.7368 4V28C35.7368 28.5304 35.515 29.0391 35.1202 29.4142C34.7254 29.7893 34.1899 30 33.6316 30H8.36842C7.81007 30 7.27459 29.7893 6.87978 29.4142C6.48496 29.0391 6.26316 28.5304 6.26316 28V4ZM6.26316 38H5.21053C4.65218 38 4.11669 37.7893 3.72188 37.4142C3.32707 37.0391 3.10526 36.5304 3.10526 36V8.5C3.10699 8.17172 3.19375 7.84889 3.35789 7.56L5.21053 4.25V28C5.21053 28.7956 5.54323 29.5587 6.13545 30.1213C6.72767 30.6839 7.5309 31 8.36842 31H7.48421L6.94737 31.51L5.32632 33.07L4.35789 35.22C4.18494 35.6122 4.14807 36.0465 4.25263 36.46L8.11579 32.8L10.0105 31H11.0632L8.72632 33.23L4.58947 37.16C4.78006 37.4144 5.0307 37.6229 5.32134 37.7688C5.61197 37.9146 5.93452 37.9938 6.26316 38ZM6.26316 38L13.6316 31H14.6842L7.31579 38H6.26316ZM12.1895 36.7L10.8526 38H9.8L11.7474 36.15L17.1474 31H18.2L12.2632 36.66L12.1895 36.7ZM13.3579 38L20.7263 31H21.7789L14.4105 38H13.3579ZM24.2947 31H25.3474L17.9789 38H16.9263L24.2947 31ZM20.4947 38L27.8 31.06H28.8526L28.2842 31.6L21.5684 38H20.4947ZM24.0632 38L29.5368 32.8L31.4421 31H32.4947L30.1579 33.23L25.1474 38H24.0632ZM38.8947 36C38.8947 36.5304 38.6729 37.0391 38.2781 37.4142C37.8833 37.7893 37.3478 38 36.7895 38H35.8842C36.3888 37.9678 36.8643 37.7642 37.2238 37.4263C37.5833 37.0885 37.8028 36.639 37.8421 36.16L35.8842 38H34.7895L37.579 35.35V35.28L36.8526 33.68L33.6947 36.68L32.2947 38H31.2421L36.5789 32.93L36.2737 32.25C36.1289 31.9419 35.9044 31.6735 35.6211 31.47L31.9158 35L28.7579 38H27.7053L34.9579 31.11C34.7698 31.0579 34.5749 31.0309 34.3789 31.03H33.6316C34.4691 31.03 35.2723 30.7139 35.8645 30.1513C36.4568 29.5887 36.7895 28.8256 36.7895 28.03V4.25L38.6105 7.5C38.7449 7.822 38.8403 8.15749 38.8947 8.5V36Z" fill="#414868"/>
<path d="M25.3405 20.3531C25.3405 21.1656 25.1374 21.8594 24.7311 22.4344C24.3311 23.0031 23.7686 23.4375 23.0436 23.7375C22.3186 24.0375 21.4655 24.1875 20.4842 24.1875C19.9655 24.1875 19.4749 24.1625 19.0124 24.1125C18.5499 24.0625 18.1249 23.9906 17.7374 23.8969C17.3499 23.8031 17.0092 23.6875 16.7155 23.55V22.0219C17.1842 22.2156 17.7561 22.3969 18.4311 22.5656C19.1061 22.7281 19.8124 22.8094 20.5499 22.8094C21.2374 22.8094 21.8186 22.7187 22.2936 22.5375C22.7686 22.35 23.128 22.0844 23.3717 21.7406C23.6217 21.3906 23.7467 20.9719 23.7467 20.4844C23.7467 20.0156 23.6436 19.625 23.4374 19.3125C23.2311 18.9937 22.8874 18.7062 22.4061 18.45C21.9311 18.1875 21.2811 17.9094 20.4561 17.6156C19.8749 17.4094 19.3624 17.1844 18.9186 16.9406C18.4749 16.6906 18.103 16.4094 17.803 16.0969C17.503 15.7844 17.2749 15.4219 17.1186 15.0094C16.9686 14.5969 16.8936 14.125 16.8936 13.5937C16.8936 12.8625 17.078 12.2375 17.4467 11.7187C17.8217 11.1937 18.3374 10.7937 18.9936 10.5187C19.6561 10.2375 20.4155 10.0969 21.2717 10.0969C22.003 10.0969 22.678 10.1656 23.2967 10.3031C23.9217 10.4406 24.4936 10.625 25.0124 10.8562L24.5155 12.225C24.0217 12.0187 23.4967 11.8469 22.9405 11.7094C22.3905 11.5719 21.8217 11.5031 21.2342 11.5031C20.6467 11.5031 20.1499 11.5906 19.7436 11.7656C19.3436 11.9344 19.0374 12.175 18.8249 12.4875C18.6124 12.8 18.5061 13.1719 18.5061 13.6031C18.5061 14.0844 18.6061 14.4844 18.8061 14.8031C19.0124 15.1219 19.3374 15.4062 19.7811 15.6562C20.2311 15.9 20.8249 16.1562 21.5624 16.425C22.3686 16.7187 23.053 17.0312 23.6155 17.3625C24.178 17.6875 24.6061 18.0875 24.8999 18.5625C25.1936 19.0312 25.3405 19.6281 25.3405 20.3531Z" fill="#343B58"/>
<path fill-rule="evenodd" clip-rule="evenodd" d="M85.3579 6.73L82.779 2.12C82.4202 1.47979 81.8848 0.944316 81.2303 0.570886C80.5758 0.197455 79.8267 0.000120709 79.0632 0H52.5369C51.7734 0.000120709 51.0243 0.197455 50.3698 0.570886C49.7153 0.944316 49.1799 1.47979 48.8211 2.12L46.2948 6.62C45.9702 7.19867 45.8003 7.84428 45.8 8.5V36C45.8 37.0609 46.2437 38.0783 47.0333 38.8284C47.8229 39.5786 48.8939 40 50.0106 40H81.5895C82.7062 40 83.7772 39.5786 84.5668 38.8284C85.3564 38.0783 85.8001 37.0609 85.8001 36V8.5C85.7482 7.89208 85.5992 7.29522 85.3579 6.73ZM51.0632 4C51.0632 3.46957 51.285 2.96086 51.6798 2.58579C52.0746 2.21071 52.6101 2 53.1685 2H78.4316C78.99 2 79.5255 2.21071 79.9203 2.58579C80.3151 2.96086 80.5369 3.46957 80.5369 4V28C80.5369 28.5304 80.3151 29.0391 79.9203 29.4142C79.5255 29.7893 78.99 30 78.4316 30H53.1685C52.6101 30 52.0746 29.7893 51.6798 29.4142C51.285 29.0391 51.0632 28.5304 51.0632 28V4ZM51.0632 38H50.0106C49.4522 38 48.9167 37.7893 48.5219 37.4142C48.1271 37.0391 47.9053 36.5304 47.9053 36V8.5C47.907 8.17172 47.9938 7.84889 48.1579 7.56L50.0106 4.25V28C50.0106 28.7956 50.3433 29.5587 50.9355 30.1213C51.5277 30.6839 52.3309 31 53.1685 31H52.2843L51.7474 31.51L50.1264 33.07L49.1579 35.22C48.985 35.6122 48.9481 36.0465 49.0527 36.46L52.9158 32.8L54.8106 31H55.8632L53.5264 33.23L49.3895 37.16C49.5801 37.4144 49.8307 37.6229 50.1214 37.7688C50.412 37.9146 50.7346 37.9938 51.0632 38ZM51.0632 38L58.4316 31H59.4843L52.1158 38H51.0632ZM56.9895 36.7L55.6527 38H54.6L56.5474 36.15L61.9474 31H63L57.0632 36.66L56.9895 36.7ZM58.1579 38L65.5264 31H66.579L59.2106 38H58.1579ZM69.0948 31H70.1474L62.779 38H61.7264L69.0948 31ZM65.2948 38L72.6001 31.06H73.6527L73.0843 31.6L66.3685 38H65.2948ZM68.8632 38L74.3369 32.8L76.2422 31H77.2948L74.9579 33.23L69.9474 38H68.8632ZM83.6948 36C83.6948 36.5304 83.473 37.0391 83.0782 37.4142C82.6834 37.7893 82.1479 38 81.5895 38H80.6843C81.1888 37.9678 81.6644 37.7642 82.0239 37.4263C82.3834 37.0885 82.6029 36.639 82.6422 36.16L80.6843 38H79.5895L82.379 35.35V35.28L81.6527 33.68L78.4948 36.68L77.0948 38H76.0422L81.379 32.93L81.0737 32.25C80.9289 31.9419 80.7044 31.6735 80.4211 31.47L76.7158 35L73.5579 38H72.5053L79.7579 31.11C79.5698 31.0579 79.375 31.0309 79.179 31.03H78.4316C79.2692 31.03 80.0724 30.7139 80.6646 30.1513C81.2568 29.5887 81.5895 28.8256 81.5895 28.03V4.25L83.4106 7.5C83.545 7.822 83.6403 8.15749 83.6948 8.5V36Z" fill="#414868"/>
<path d="M66.597 24H64.9939V11.7H60.6814V10.2937H70.8908V11.7H66.597V24Z" fill="#343B58"/>
<path fill-rule="evenodd" clip-rule="evenodd" d="M130.158 6.73L127.579 2.12C127.22 1.47979 126.685 0.944316 126.03 0.570886C125.376 0.197455 124.627 0.000120709 123.863 0H97.3367C96.5732 0.000120709 95.8241 0.197455 95.1696 0.570886C94.5151 0.944316 93.9797 1.47979 93.6209 2.12L91.0946 6.62C90.77 7.19867 90.6001 7.84428 90.5999 8.5V36C90.5999 37.0609 91.0435 38.0783 91.8331 38.8284C92.6227 39.5786 93.6937 40 94.8104 40H126.389C127.506 40 128.577 39.5786 129.367 38.8284C130.156 38.0783 130.6 37.0609 130.6 36V8.5C130.548 7.89208 130.399 7.29522 130.158 6.73ZM95.863 4C95.863 3.46957 96.0848 2.96086 96.4796 2.58579C96.8744 2.21071 97.4099 2 97.9683 2H123.231C123.79 2 124.325 2.21071 124.72 2.58579C125.115 2.96086 125.337 3.46957 125.337 4V28C125.337 28.5304 125.115 29.0391 124.72 29.4142C124.325 29.7893 123.79 30 123.231 30H97.9683C97.4099 30 96.8744 29.7893 96.4796 29.4142C96.0848 29.0391 95.863 28.5304 95.863 28V4ZM95.863 38H94.8104C94.252 38 93.7165 37.7893 93.3217 37.4142C92.9269 37.0391 92.7051 36.5304 92.7051 36V8.5C92.7068 8.17172 92.7936 7.84889 92.9577 7.56L94.8104 4.25V28C94.8104 28.7956 95.1431 29.5587 95.7353 30.1213C96.3275 30.6839 97.1307 31 97.9683 31H97.0841L96.5472 31.51L94.9262 33.07L93.9577 35.22C93.7848 35.6122 93.7479 36.0465 93.8525 36.46L97.7156 32.8L99.6104 31H100.663L98.3262 33.23L94.1893 37.16C94.3799 37.4144 94.6306 37.6229 94.9212 37.7688C95.2118 37.9146 95.5344 37.9938 95.863 38ZM95.863 38L103.231 31H104.284L96.9156 38H95.863ZM101.789 36.7L100.452 38H99.3999L101.347 36.15L106.747 31H107.8L101.863 36.66L101.789 36.7ZM102.958 38L110.326 31H111.379L104.01 38H102.958ZM113.895 31H114.947L107.579 38H106.526L113.895 31ZM110.095 38L117.4 31.06H118.452L117.884 31.6L111.168 38H110.095ZM113.663 38L119.137 32.8L121.042 31H122.095L119.758 33.23L114.747 38H113.663ZM128.495 36C128.495 36.5304 128.273 37.0391 127.878 37.4142C127.483 37.7893 126.948 38 126.389 38H125.484C125.989 37.9678 126.464 37.7642 126.824 37.4263C127.183 37.0885 127.403 36.639 127.442 36.16L125.484 38H124.389L127.179 35.35V35.28L126.452 33.68L123.295 36.68L121.895 38H120.842L126.179 32.93L125.874 32.25C125.729 31.9419 125.504 31.6735 125.221 31.47L121.516 35L118.358 38H117.305L124.558 31.11C124.37 31.0579 124.175 31.0309 123.979 31.03H123.231C124.069 31.03 124.872 30.7139 125.464 30.1513C126.057 29.5887 126.389 28.8256 126.389 28.03V4.25L128.21 7.5C128.345 7.822 128.44 8.15749 128.495 8.5V36Z" fill="#414868"/>
<path d="M116.891 17.1281C116.891 18.1844 116.756 19.1469 116.487 20.0156C116.219 20.8781 115.819 21.6219 115.287 22.2469C114.762 22.8656 114.109 23.3437 113.328 23.6812C112.547 24.0188 111.641 24.1875 110.609 24.1875C109.547 24.1875 108.619 24.0188 107.825 23.6812C107.037 23.3437 106.381 22.8625 105.856 22.2375C105.337 21.6125 104.947 20.8656 104.684 19.9969C104.428 19.1281 104.3 18.1656 104.3 17.1094C104.3 15.7094 104.531 14.4812 104.994 13.425C105.456 12.3687 106.156 11.5469 107.094 10.9594C108.037 10.3719 109.219 10.0781 110.637 10.0781C111.994 10.0781 113.134 10.3687 114.059 10.95C114.991 11.5312 115.694 12.35 116.169 13.4062C116.65 14.4562 116.891 15.6969 116.891 17.1281ZM105.978 17.1281C105.978 18.2906 106.144 19.2969 106.475 20.1469C106.806 20.9969 107.312 21.6531 107.994 22.1156C108.681 22.5781 109.553 22.8094 110.609 22.8094C111.672 22.8094 112.541 22.5781 113.216 22.1156C113.897 21.6531 114.4 20.9969 114.725 20.1469C115.05 19.2969 115.212 18.2906 115.212 17.1281C115.212 15.3594 114.841 13.9781 114.097 12.9844C113.359 11.9844 112.206 11.4844 110.637 11.4844C109.575 11.4844 108.7 11.7125 108.012 12.1687C107.325 12.625 106.812 13.275 106.475 14.1187C106.144 14.9562 105.978 15.9594 105.978 17.1281Z" fill="#343B58"/>
<path fill-rule="evenodd" clip-rule="evenodd" d="M174.958 6.73L172.379 2.12C172.02 1.47979 171.485 0.944316 170.83 0.570886C170.176 0.197455 169.427 0.000120709 168.663 0H142.137C141.373 0.000120709 140.624 0.197455 139.97 0.570886C139.315 0.944316 138.78 1.47979 138.421 2.12L135.895 6.62C135.57 7.19867 135.4 7.84428 135.4 8.5V36C135.4 37.0609 135.844 38.0783 136.633 38.8284C137.423 39.5786 138.494 40 139.61 40H171.189C172.306 40 173.377 39.5786 174.167 38.8284C174.956 38.0783 175.4 37.0609 175.4 36V8.5C175.348 7.89208 175.199 7.29522 174.958 6.73ZM140.663 4C140.663 3.46957 140.885 2.96086 141.28 2.58579C141.674 2.21071 142.21 2 142.768 2H168.031C168.59 2 169.125 2.21071 169.52 2.58579C169.915 2.96086 170.137 3.46957 170.137 4V28C170.137 28.5304 169.915 29.0391 169.52 29.4142C169.125 29.7893 168.59 30 168.031 30H142.768C142.21 30 141.674 29.7893 141.28 29.4142C140.885 29.0391 140.663 28.5304 140.663 28V4ZM140.663 38H139.61C139.052 38 138.517 37.7893 138.122 37.4142C137.727 37.0391 137.505 36.5304 137.505 36V8.5C137.507 8.17172 137.594 7.84889 137.758 7.56L139.61 4.25V28C139.61 28.7956 139.943 29.5587 140.535 30.1213C141.128 30.6839 141.931 31 142.768 31H141.884L141.347 31.51L139.726 33.07L138.758 35.22C138.585 35.6122 138.548 36.0465 138.653 36.46L142.516 32.8L144.41 31H145.463L143.126 33.23L138.989 37.16C139.18 37.4144 139.431 37.6229 139.721 37.7688C140.012 37.9146 140.334 37.9938 140.663 38ZM140.663 38L148.031 31H149.084L141.716 38H140.663ZM146.589 36.7L145.253 38H144.2L146.147 36.15L151.547 31H152.6L146.663 36.66L146.589 36.7ZM147.758 38L155.126 31H156.179L148.81 38H147.758ZM158.695 31H159.747L152.379 38H151.326L158.695 31ZM154.895 38L162.2 31.06H163.253L162.684 31.6L155.968 38H154.895ZM158.463 38L163.937 32.8L165.842 31H166.895L164.558 33.23L159.547 38H158.463ZM173.295 36C173.295 36.5304 173.073 37.0391 172.678 37.4142C172.283 37.7893 171.748 38 171.189 38H170.284C170.789 37.9678 171.264 37.7642 171.624 37.4263C171.983 37.0885 172.203 36.639 172.242 36.16L170.284 38H169.189L171.979 35.35V35.28L171.253 33.68L168.095 36.68L166.695 38H165.642L170.979 32.93L170.674 32.25C170.529 31.9419 170.304 31.6735 170.021 31.47L166.316 35L163.158 38H162.105L169.358 31.11C169.17 31.0579 168.975 31.0309 168.779 31.03H168.031C168.869 31.03 169.672 30.7139 170.264 30.1513C170.857 29.5887 171.189 28.8256 171.189 28.03V4.25L173.01 7.5C173.145 7.822 173.24 8.15749 173.295 8.5V36Z" fill="#414868"/>
<path d="M155.053 10.2937C156.178 10.2937 157.106 10.4344 157.837 10.7156C158.575 10.9906 159.125 11.4125 159.487 11.9812C159.85 12.55 160.031 13.275 160.031 14.1562C160.031 14.8812 159.9 15.4875 159.637 15.975C159.375 16.4562 159.031 16.8469 158.606 17.1469C158.181 17.4469 157.728 17.6781 157.247 17.8406L161.006 24H159.15L155.794 18.2812H152.944V24H151.35V10.2937H155.053ZM154.959 11.6719H152.944V16.9312H155.119C156.237 16.9312 157.059 16.7031 157.584 16.2469C158.116 15.7906 158.381 15.1187 158.381 14.2312C158.381 13.3 158.1 12.6406 157.537 12.2531C156.981 11.8656 156.122 11.6719 154.959 11.6719Z" fill="#343B58"/>
<path fill-rule="evenodd" clip-rule="evenodd" d="M264.558 6.73L261.979 2.12C261.62 1.47979 261.085 0.944316 260.43 0.570886C259.776 0.197455 259.027 0.000120709 258.263 0H231.737C230.973 0.000120709 230.224 0.197455 229.57 0.570886C228.915 0.944316 228.38 1.47979 228.021 2.12L225.495 6.62C225.17 7.19867 225 7.84428 225 8.5V36C225 37.0609 225.444 38.0783 226.233 38.8284C227.023 39.5786 228.094 40 229.211 40H260.789C261.906 40 262.977 39.5786 263.767 38.8284C264.556 38.0783 265 37.0609 265 36V8.5C264.948 7.89208 264.799 7.29522 264.558 6.73ZM230.263 4C230.263 3.46957 230.485 2.96086 230.88 2.58579C231.275 2.21071 231.81 2 232.368 2H257.632C258.19 2 258.725 2.21071 259.12 2.58579C259.515 2.96086 259.737 3.46957 259.737 4V28C259.737 28.5304 259.515 29.0391 259.12 29.4142C258.725 29.7893 258.19 30 257.632 30H232.368C231.81 30 231.275 29.7893 230.88 29.4142C230.485 29.0391 230.263 28.5304 230.263 28V4ZM230.263 38H229.211C228.652 38 228.117 37.7893 227.722 37.4142C227.327 37.0391 227.105 36.5304 227.105 36V8.5C227.107 8.17172 227.194 7.84889 227.358 7.56L229.211 4.25V28C229.211 28.7956 229.543 29.5587 230.135 30.1213C230.728 30.6839 231.531 31 232.368 31H231.484L230.947 31.51L229.326 33.07L228.358 35.22C228.185 35.6122 228.148 36.0465 228.253 36.46L232.116 32.8L234.011 31H235.063L232.726 33.23L228.589 37.16C228.78 37.4144 229.031 37.6229 229.321 37.7688C229.612 37.9146 229.935 37.9938 230.263 38ZM230.263 38L237.632 31H238.684L231.316 38H230.263ZM236.189 36.7L234.853 38H233.8L235.747 36.15L241.147 31H242.2L236.263 36.66L236.189 36.7ZM237.358 38L244.726 31H245.779L238.411 38H237.358ZM248.295 31H249.347L241.979 38H240.926L248.295 31ZM244.495 38L251.8 31.06H252.853L252.284 31.6L245.568 38H244.495ZM248.063 38L253.537 32.8L255.442 31H256.495L254.158 33.23L249.147 38H248.063ZM262.895 36C262.895 36.5304 262.673 37.0391 262.278 37.4142C261.883 37.7893 261.348 38 260.789 38H259.884C260.389 37.9678 260.864 37.7642 261.224 37.4263C261.583 37.0885 261.803 36.639 261.842 36.16L259.884 38H258.789L261.579 35.35V35.28L260.853 33.68L257.695 36.68L256.295 38H255.242L260.579 32.93L260.274 32.25C260.129 31.9419 259.904 31.6735 259.621 31.47L255.916 35L252.758 38H251.705L258.958 31.11C258.77 31.0579 258.575 31.0309 258.379 31.03H257.632C258.469 31.03 259.272 30.7139 259.865 30.1513C260.457 29.5887 260.789 28.8256 260.789 28.03V4.25L262.611 7.5C262.745 7.822 262.84 8.15749 262.895 8.5V36Z" fill="#414868"/>
<path d="M245.797 24H244.194V11.7H239.881V10.2937H250.091V11.7H245.797V24Z" fill="#343B58"/>
<path fill-rule="evenodd" clip-rule="evenodd" d="M309.358 6.73L306.779 2.12C306.42 1.47979 305.885 0.944316 305.23 0.570886C304.576 0.197455 303.827 0.000120709 303.063 0H276.537C275.773 0.000120709 275.024 0.197455 274.37 0.570886C273.715 0.944316 273.18 1.47979 272.821 2.12L270.295 6.62C269.97 7.19867 269.8 7.84428 269.8 8.5V36C269.8 37.0609 270.244 38.0783 271.033 38.8284C271.823 39.5786 272.894 40 274.011 40H305.59C306.706 40 307.777 39.5786 308.567 38.8284C309.356 38.0783 309.8 37.0609 309.8 36V8.5C309.748 7.89208 309.599 7.29522 309.358 6.73ZM275.063 4C275.063 3.46957 275.285 2.96086 275.68 2.58579C276.075 2.21071 276.61 2 277.168 2H302.432C302.99 2 303.525 2.21071 303.92 2.58579C304.315 2.96086 304.537 3.46957 304.537 4V28C304.537 28.5304 304.315 29.0391 303.92 29.4142C303.525 29.7893 302.99 30 302.432 30H277.168C276.61 30 276.075 29.7893 275.68 29.4142C275.285 29.0391 275.063 28.5304 275.063 28V4ZM275.063 38H274.011C273.452 38 272.917 37.7893 272.522 37.4142C272.127 37.0391 271.905 36.5304 271.905 36V8.5C271.907 8.17172 271.994 7.84889 272.158 7.56L274.011 4.25V28C274.011 28.7956 274.343 29.5587 274.936 30.1213C275.528 30.6839 276.331 31 277.168 31H276.284L275.747 31.51L274.126 33.07L273.158 35.22C272.985 35.6122 272.948 36.0465 273.053 36.46L276.916 32.8L278.811 31H279.863L277.526 33.23L273.39 37.16C273.58 37.4144 273.831 37.6229 274.121 37.7688C274.412 37.9146 274.735 37.9938 275.063 38ZM275.063 38L282.432 31H283.484L276.116 38H275.063ZM280.99 36.7L279.653 38H278.6L280.547 36.15L285.947 31H287L281.063 36.66L280.99 36.7ZM282.158 38L289.526 31H290.579L283.211 38H282.158ZM293.095 31H294.147L286.779 38H285.726L293.095 31ZM289.295 38L296.6 31.06H297.653L297.084 31.6L290.368 38H289.295ZM292.863 38L298.337 32.8L300.242 31H301.295L298.958 33.23L293.947 38H292.863ZM307.695 36C307.695 36.5304 307.473 37.0391 307.078 37.4142C306.683 37.7893 306.148 38 305.59 38H304.684C305.189 37.9678 305.664 37.7642 306.024 37.4263C306.383 37.0885 306.603 36.639 306.642 36.16L304.684 38H303.59L306.379 35.35V35.28L305.653 33.68L302.495 36.68L301.095 38H300.042L305.379 32.93L305.074 32.25C304.929 31.9419 304.704 31.6735 304.421 31.47L300.716 35L297.558 38H296.505L303.758 31.11C303.57 31.0579 303.375 31.0309 303.179 31.03H302.432C303.269 31.03 304.072 30.7139 304.665 30.1513C305.257 29.5887 305.59 28.8256 305.59 28.03V4.25L307.411 7.5C307.545 7.822 307.64 8.15749 307.695 8.5V36Z" fill="#414868"/>
<path d="M289.8 17.1656L293.447 10.2937H295.163L290.597 18.6844V24H289.003V18.7594L284.428 10.2937H286.172L289.8 17.1656Z" fill="#343B58"/>
<path fill-rule="evenodd" clip-rule="evenodd" d="M219.758 6.73L217.179 2.12C216.82 1.47979 216.285 0.944316 215.63 0.570886C214.976 0.197455 214.227 0.000120709 213.463 0H186.937C186.173 0.000120709 185.424 0.197455 184.77 0.570886C184.115 0.944316 183.58 1.47979 183.221 2.12L180.695 6.62C180.37 7.19867 180.2 7.84428 180.2 8.5V36C180.2 37.0609 180.644 38.0783 181.433 38.8284C182.223 39.5786 183.294 40 184.41 40H215.989C217.106 40 218.177 39.5786 218.967 38.8284C219.756 38.0783 220.2 37.0609 220.2 36V8.5C220.148 7.89208 219.999 7.29522 219.758 6.73ZM185.463 4C185.463 3.46957 185.685 2.96086 186.08 2.58579C186.475 2.21071 187.01 2 187.568 2H212.832C213.39 2 213.925 2.21071 214.32 2.58579C214.715 2.96086 214.937 3.46957 214.937 4V28C214.937 28.5304 214.715 29.0391 214.32 29.4142C213.925 29.7893 213.39 30 212.832 30H187.568C187.01 30 186.475 29.7893 186.08 29.4142C185.685 29.0391 185.463 28.5304 185.463 28V4ZM185.463 38H184.41C183.852 38 183.317 37.7893 182.922 37.4142C182.527 37.0391 182.305 36.5304 182.305 36V8.5C182.307 8.17172 182.394 7.84889 182.558 7.56L184.41 4.25V28C184.41 28.7956 184.743 29.5587 185.335 30.1213C185.928 30.6839 186.731 31 187.568 31H186.684L186.147 31.51L184.526 33.07L183.558 35.22C183.385 35.6122 183.348 36.0465 183.453 36.46L187.316 32.8L189.21 31H190.263L187.926 33.23L183.789 37.16C183.98 37.4144 184.231 37.6229 184.521 37.7688C184.812 37.9146 185.134 37.9938 185.463 38ZM185.463 38L192.832 31H193.884L186.516 38H185.463ZM191.389 36.7L190.053 38H189L190.947 36.15L196.347 31H197.4L191.463 36.66L191.389 36.7ZM192.558 38L199.926 31H200.979L193.61 38H192.558ZM203.495 31H204.547L197.179 38H196.126L203.495 31ZM199.695 38L207 31.06H208.053L207.484 31.6L200.768 38H199.695ZM203.263 38L208.737 32.8L210.642 31H211.695L209.358 33.23L204.347 38H203.263ZM218.095 36C218.095 36.5304 217.873 37.0391 217.478 37.4142C217.083 37.7893 216.548 38 215.989 38H215.084C215.589 37.9678 216.064 37.7642 216.424 37.4263C216.783 37.0885 217.003 36.639 217.042 36.16L215.084 38H213.989L216.779 35.35V35.28L216.053 33.68L212.895 36.68L211.495 38H210.442L215.779 32.93L215.474 32.25C215.329 31.9419 215.104 31.6735 214.821 31.47L211.116 35L207.958 38H206.905L214.158 31.11C213.97 31.0579 213.775 31.0309 213.579 31.03H212.832C213.669 31.03 214.472 30.7139 215.065 30.1513C215.657 29.5887 215.989 28.8256 215.989 28.03V4.25L217.81 7.5C217.945 7.822 218.04 8.15749 218.095 8.5V36Z" fill="#414868"/>
<path d="M200.2 17.1656L203.847 10.2937H205.563L200.997 18.6844V24H199.403V18.7594L194.828 10.2937H196.572L200.2 17.1656Z" fill="#343B58"/>
<path fill-rule="evenodd" clip-rule="evenodd" d="M354.158 6.73L351.579 2.12C351.22 1.47979 350.685 0.944316 350.03 0.570886C349.376 0.197455 348.627 0.000120709 347.863 0H321.337C320.573 0.000120709 319.824 0.197455 319.17 0.570886C318.515 0.944316 317.98 1.47979 317.621 2.12L315.095 6.62C314.77 7.19867 314.6 7.84428 314.6 8.5V36C314.6 37.0609 315.043 38.0783 315.833 38.8284C316.623 39.5786 317.694 40 318.81 40H350.389C351.506 40 352.577 39.5786 353.367 38.8284C354.156 38.0783 354.6 37.0609 354.6 36V8.5C354.548 7.89208 354.399 7.29522 354.158 6.73ZM319.863 4C319.863 3.46957 320.085 2.96086 320.48 2.58579C320.874 2.21071 321.41 2 321.968 2H347.231C347.79 2 348.325 2.21071 348.72 2.58579C349.115 2.96086 349.337 3.46957 349.337 4V28C349.337 28.5304 349.115 29.0391 348.72 29.4142C348.325 29.7893 347.79 30 347.231 30H321.968C321.41 30 320.874 29.7893 320.48 29.4142C320.085 29.0391 319.863 28.5304 319.863 28V4ZM319.863 38H318.81C318.252 38 317.717 37.7893 317.322 37.4142C316.927 37.0391 316.705 36.5304 316.705 36V8.5C316.707 8.17172 316.794 7.84889 316.958 7.56L318.81 4.25V28C318.81 28.7956 319.143 29.5587 319.735 30.1213C320.328 30.6839 321.131 31 321.968 31H321.084L320.547 31.51L318.926 33.07L317.958 35.22C317.785 35.6122 317.748 36.0465 317.852 36.46L321.716 32.8L323.61 31H324.663L322.326 33.23L318.189 37.16C318.38 37.4144 318.631 37.6229 318.921 37.7688C319.212 37.9146 319.534 37.9938 319.863 38ZM319.863 38L327.231 31H328.284L320.916 38H319.863ZM325.789 36.7L324.452 38H323.4L325.347 36.15L330.747 31H331.8L325.863 36.66L325.789 36.7ZM326.958 38L334.326 31H335.379L328.01 38H326.958ZM337.895 31H338.947L331.579 38H330.526L337.895 31ZM334.095 38L341.4 31.06H342.452L341.884 31.6L335.168 38H334.095ZM337.663 38L343.137 32.8L345.042 31H346.095L343.758 33.23L338.747 38H337.663ZM352.495 36C352.495 36.5304 352.273 37.0391 351.878 37.4142C351.483 37.7893 350.948 38 350.389 38H349.484C349.989 37.9678 350.464 37.7642 350.824 37.4263C351.183 37.0885 351.403 36.639 351.442 36.16L349.484 38H348.389L351.179 35.35V35.28L350.452 33.68L347.295 36.68L345.895 38H344.842L350.179 32.93L349.874 32.25C349.729 31.9419 349.504 31.6735 349.221 31.47L345.516 35L342.358 38H341.305L348.558 31.11C348.37 31.0579 348.175 31.0309 347.979 31.03H347.231C348.069 31.03 348.872 30.7139 349.464 30.1513C350.057 29.5887 350.389 28.8256 350.389 28.03V4.25L352.21 7.5C352.345 7.822 352.44 8.15749 352.495 8.5V36Z" fill="#414868"/>
<path d="M334.281 10.2937C336.05 10.2937 337.341 10.6406 338.153 11.3344C338.972 12.0219 339.381 13.0094 339.381 14.2969C339.381 14.8781 339.284 15.4312 339.091 15.9562C338.903 16.475 338.597 16.9344 338.172 17.3344C337.747 17.7281 337.187 18.0406 336.494 18.2719C335.806 18.4969 334.962 18.6094 333.962 18.6094H332.294V24H330.7V10.2937H334.281ZM334.131 11.6531H332.294V17.2406H333.784C334.659 17.2406 335.387 17.1469 335.969 16.9594C336.556 16.7719 336.997 16.4687 337.291 16.05C337.584 15.625 337.731 15.0625 337.731 14.3625C337.731 13.45 337.441 12.7719 336.859 12.3281C336.278 11.8781 335.369 11.6531 334.131 11.6531Z" fill="#343B58"/>
<path fill-rule="evenodd" clip-rule="evenodd" d="M398.958 6.73L396.379 2.12C396.02 1.47979 395.485 0.944316 394.83 0.570886C394.176 0.197455 393.427 0.000120709 392.663 0H366.137C365.373 0.000120709 364.624 0.197455 363.97 0.570886C363.315 0.944316 362.78 1.47979 362.421 2.12L359.895 6.62C359.57 7.19867 359.4 7.84428 359.4 8.5V36C359.4 37.0609 359.844 38.0783 360.633 38.8284C361.423 39.5786 362.494 40 363.61 40H395.189C396.306 40 397.377 39.5786 398.167 38.8284C398.956 38.0783 399.4 37.0609 399.4 36V8.5C399.348 7.89208 399.199 7.29522 398.958 6.73ZM364.663 4C364.663 3.46957 364.885 2.96086 365.28 2.58579C365.674 2.21071 366.21 2 366.768 2H392.031C392.59 2 393.125 2.21071 393.52 2.58579C393.915 2.96086 394.137 3.46957 394.137 4V28C394.137 28.5304 393.915 29.0391 393.52 29.4142C393.125 29.7893 392.59 30 392.031 30H366.768C366.21 30 365.674 29.7893 365.28 29.4142C364.885 29.0391 364.663 28.5304 364.663 28V4ZM364.663 38H363.61C363.052 38 362.517 37.7893 362.122 37.4142C361.727 37.0391 361.505 36.5304 361.505 36V8.5C361.507 8.17172 361.594 7.84889 361.758 7.56L363.61 4.25V28C363.61 28.7956 363.943 29.5587 364.535 30.1213C365.128 30.6839 365.931 31 366.768 31H365.884L365.347 31.51L363.726 33.07L362.758 35.22C362.585 35.6122 362.548 36.0465 362.653 36.46L366.516 32.8L368.41 31H369.463L367.126 33.23L362.989 37.16C363.18 37.4144 363.431 37.6229 363.721 37.7688C364.012 37.9146 364.334 37.9938 364.663 38ZM364.663 38L372.031 31H373.084L365.716 38H364.663ZM370.589 36.7L369.253 38H368.2L370.147 36.15L375.547 31H376.6L370.663 36.66L370.589 36.7ZM371.758 38L379.126 31H380.179L372.81 38H371.758ZM382.695 31H383.747L376.379 38H375.326L382.695 31ZM378.895 38L386.2 31.06H387.253L386.684 31.6L379.968 38H378.895ZM382.463 38L387.937 32.8L389.842 31H390.895L388.558 33.23L383.547 38H382.463ZM397.295 36C397.295 36.5304 397.073 37.0391 396.678 37.4142C396.283 37.7893 395.748 38 395.189 38H394.284C394.789 37.9678 395.264 37.7642 395.624 37.4263C395.983 37.0885 396.203 36.639 396.242 36.16L394.284 38H393.189L395.979 35.35V35.28L395.253 33.68L392.095 36.68L390.695 38H389.642L394.979 32.93L394.674 32.25C394.529 31.9419 394.304 31.6735 394.021 31.47L390.316 35L387.158 38H386.105L393.358 31.11C393.17 31.0579 392.975 31.0309 392.779 31.03H392.031C392.869 31.03 393.672 30.7139 394.264 30.1513C394.857 29.5887 395.189 28.8256 395.189 28.03V4.25L397.01 7.5C397.145 7.822 397.24 8.15749 397.295 8.5V36Z" fill="#414868"/>
<path d="M383.572 24H375.941V10.2937H383.572V11.7H377.534V16.1344H383.225V17.5219H377.534V22.5937H383.572V24Z" fill="#343B58"/>
</svg>
