<svg width="274" height="48" viewBox="0 0 274 48" fill="none" xmlns="http://www.w3.org/2000/svg">
<g clip-path="url(#clip0_296_146)">
<path d="M70 33.04C70.8 33.4667 71.6933 33.8267 72.68 34.12C73.6933 34.3867 74.7067 34.52 75.72 34.52C76.6 34.52 77.4267 34.44 78.2 34.28C78.9733 34.0933 79.64 33.8133 80.2 33.44C80.7867 33.04 81.24 32.5467 81.56 31.96C81.9067 31.3733 82.08 30.68 82.08 29.88C82.08 28.7867 81.7067 27.8933 80.96 27.2C80.24 26.5067 79.3333 25.8933 78.24 25.36C77.1467 24.8267 75.96 24.3067 74.68 23.8C73.4 23.2933 72.2133 22.6933 71.12 22C70.0267 21.3067 69.1067 20.4667 68.36 19.48C67.64 18.4667 67.28 17.1867 67.28 15.64C67.28 14.5467 67.4933 13.56 67.92 12.68C68.3733 11.8 69 11.0533 69.8 10.44C70.6 9.82667 71.56 9.36 72.68 9.04C73.8267 8.69333 75.0933 8.52 76.48 8.52C78.08 8.52 79.5333 8.64 80.84 8.88C82.1467 9.09333 83.1867 9.38666 83.96 9.76L84.04 9.72V9.8H84.08L84.04 9.92V16.32H81.08V12.04C80.4133 11.88 79.68 11.7467 78.88 11.64C78.08 11.5333 77.2267 11.48 76.32 11.48C75.44 11.48 74.64 11.5867 73.92 11.8C73.2267 12.0133 72.6267 12.3067 72.12 12.68C71.64 13.0267 71.2667 13.44 71 13.92C70.7333 14.4 70.6 14.9067 70.6 15.44C70.6 16.48 70.96 17.3467 71.68 18.04C72.4267 18.7333 73.3467 19.36 74.44 19.92C75.5333 20.4533 76.72 20.9867 78 21.52C79.28 22.0533 80.4667 22.68 81.56 23.4C82.6533 24.0933 83.56 24.9333 84.28 25.92C85.0267 26.9067 85.4 28.1333 85.4 29.6C85.4 30.8 85.1733 31.88 84.72 32.84C84.2933 33.8 83.6667 34.6267 82.84 35.32C82.04 36.0133 81.04 36.5467 79.84 36.92C78.6667 37.2933 77.3333 37.48 75.84 37.48C74.8267 37.48 73.8667 37.4 72.96 37.24C72.0533 37.08 71.2133 36.88 70.44 36.64C69.6933 36.4 69.0133 36.1467 68.4 35.88C67.8133 35.6133 67.3467 35.3867 67 35.2L67.04 35.08V28.6H70V33.04ZM93.2644 14.6H109.904V20.456H107.536V16.968H102.896V34.632H106.416V37H96.7204V34.632H100.24V16.968H95.6324V20.456H93.2644V14.6ZM116.708 25.8C116.708 22.088 117.359 19.2293 118.66 17.224C119.983 15.2187 122.009 14.216 124.74 14.216C126.233 14.216 127.492 14.4933 128.516 15.048C129.561 15.6027 130.404 16.392 131.044 17.416C131.684 18.4187 132.143 19.6347 132.42 21.064C132.697 22.472 132.836 24.0507 132.836 25.8C132.836 29.512 132.175 32.3707 130.852 34.376C129.551 36.3813 127.513 37.384 124.74 37.384C123.268 37.384 122.02 37.1067 120.996 36.552C119.972 35.9973 119.14 35.2187 118.5 34.216C117.86 33.192 117.401 31.976 117.124 30.568C116.847 29.1387 116.708 27.5493 116.708 25.8ZM119.524 25.8C119.524 27.0373 119.599 28.2107 119.748 29.32C119.919 30.4293 120.207 31.4107 120.612 32.264C121.017 33.096 121.551 33.768 122.212 34.28C122.873 34.7707 123.716 35.016 124.74 35.016C126.575 35.016 127.908 34.2693 128.74 32.776C129.593 31.2827 130.02 28.9573 130.02 25.8C130.02 24.584 129.935 23.4213 129.764 22.312C129.615 21.1813 129.337 20.2 128.932 19.368C128.527 18.5147 127.983 17.8427 127.3 17.352C126.617 16.84 125.764 16.584 124.74 16.584C122.927 16.584 121.604 17.3413 120.772 18.856C119.94 20.3493 119.524 22.664 119.524 25.8ZM141.559 14.824C142.37 14.6747 143.298 14.5573 144.343 14.472C145.41 14.3867 146.381 14.344 147.255 14.344C148.237 14.344 149.165 14.4507 150.039 14.664C150.935 14.8773 151.714 15.2293 152.375 15.72C153.058 16.2107 153.602 16.8507 154.007 17.64C154.413 18.4293 154.615 19.3893 154.615 20.52C154.615 21.3947 154.466 22.1733 154.167 22.856C153.89 23.5173 153.538 24.0933 153.111 24.584C152.706 25.0533 152.279 25.4373 151.831 25.736C151.383 26.0347 150.999 26.248 150.679 26.376L156.599 37H153.495L148.215 27.144H144.215V37H141.559V14.824ZM147.319 16.648C147.042 16.648 146.754 16.648 146.455 16.648C146.157 16.648 145.869 16.6587 145.591 16.68C145.314 16.7013 145.047 16.7227 144.791 16.744C144.557 16.7653 144.365 16.7973 144.215 16.84V25.096H146.711C148.183 25.096 149.399 24.7333 150.359 24.008C151.319 23.2827 151.799 22.152 151.799 20.616C151.799 19.464 151.405 18.5147 150.615 17.768C149.826 17.0213 148.727 16.648 147.319 16.648ZM169.835 28.424L161.835 14.6H164.939L171.339 25.672H171.371L177.611 14.6H180.459L172.491 28.392V37H169.835V28.424ZM186.014 14.6H202.654V20.456H200.286V16.968H195.646V34.632H199.166V37H189.47V34.632H192.99V16.968H188.382V20.456H186.014V14.6ZM216.21 28.424L208.21 14.6H211.314L217.714 25.672H217.746L223.986 14.6H226.834L218.866 28.392V37H216.21V28.424ZM234.309 14.824C235.12 14.632 235.995 14.504 236.933 14.44C237.872 14.376 238.8 14.344 239.717 14.344C240.699 14.344 241.691 14.44 242.693 14.632C243.717 14.824 244.645 15.176 245.477 15.688C246.309 16.2 246.981 16.904 247.493 17.8C248.027 18.696 248.293 19.8373 248.293 21.224C248.293 22.5893 248.048 23.7413 247.557 24.68C247.067 25.6187 246.416 26.3867 245.605 26.984C244.795 27.56 243.867 27.976 242.821 28.232C241.776 28.488 240.699 28.616 239.589 28.616C239.483 28.616 239.301 28.616 239.045 28.616C238.811 28.616 238.555 28.616 238.277 28.616C238.021 28.5947 237.765 28.5733 237.509 28.552C237.253 28.5307 237.072 28.5093 236.965 28.488V37H234.309V14.824ZM239.781 16.648C239.227 16.648 238.693 16.6587 238.181 16.68C237.669 16.7013 237.264 16.7547 236.965 16.84V26.12C237.072 26.1627 237.243 26.1947 237.477 26.216C237.712 26.216 237.957 26.2267 238.213 26.248C238.469 26.248 238.715 26.248 238.949 26.248C239.184 26.248 239.355 26.248 239.461 26.248C240.187 26.248 240.901 26.184 241.605 26.056C242.331 25.9067 242.981 25.6507 243.557 25.288C244.133 24.9253 244.592 24.4133 244.933 23.752C245.296 23.0907 245.477 22.248 245.477 21.224C245.477 20.3493 245.307 19.624 244.965 19.048C244.645 18.4507 244.208 17.9813 243.653 17.64C243.12 17.2773 242.512 17.0213 241.829 16.872C241.147 16.7227 240.464 16.648 239.781 16.648ZM257.721 14.6H270.873V16.968H260.377V24.296H270.073V26.664H260.377V34.632H271.033V37H257.721V14.6Z" fill="#343B58"/>
<path d="M38 16H36V8C36 7.44772 35.5523 7 35 7H32C31.4477 7 31 6.55228 31 6V3C31 2.44772 30.5523 2 30 2H13C12.4477 2 12 2.44772 12 3V16H10V2C10 0.895431 10.8954 0 12 0H32.1716C32.702 0 33.2107 0.210714 33.5858 0.585786L37.4142 4.41421C37.7893 4.78929 38 5.29799 38 5.82843V16Z" fill="#565F89"/>
<path d="M6 16C6.55231 16 7 16.4477 7 17V18H41V17C41 16.4477 41.4477 16 42 16H44C44.5523 16 45 16.4477 45 17H47C47.5523 17 48 17.4477 48 18V24C48 24.5523 47.5523 25 47 25C46.4477 25 46 24.5523 46 24V19H45V21C45 21.5523 44.5523 22 44 22H42C41.4477 22 41 21.5523 41 21V20H7V21C7 21.5523 6.55231 22 6 22H4C3.44769 22 3 21.5523 3 21V17C3 16.4477 3.44769 16 4 16H6Z" fill="#565F89"/>
<path d="M16.9948 29.8976C18.4432 29.5914 19.5 28.6339 19.5 27.5C19.5 26.1193 17.933 25 16 25C14.067 25 12.5 26.1193 12.5 27.5C12.5 28.6339 13.5568 29.5914 15.0052 29.8976C15.0018 29.9313 15 29.9654 15 30V31C15 31.5523 15.4477 32 16 32C16.5523 32 17 31.5523 17 31V30L16.9999 29.9903C16.9998 29.9756 16.9993 29.9609 16.9986 29.9463C16.9977 29.9299 16.9965 29.9137 16.9948 29.8976Z" fill="#565F89"/>
<path d="M24.9948 29.8976C26.4432 29.5914 27.5 28.6339 27.5 27.5C27.5 26.1193 25.933 25 24 25C22.067 25 20.5 26.1193 20.5 27.5C20.5 28.6339 21.5568 29.5914 23.0052 29.8976L23.0035 29.9162L23.0021 29.9343L23.0015 29.9441L23.0007 29.9618L23.0002 29.9789L23 30V31C23 31.5523 23.4477 32 24 32C24.5523 32 25 31.5523 25 31V30C25 29.9654 24.9982 29.9313 24.9948 29.8976Z" fill="#565F89"/>
<path d="M32.9948 29.8976C34.4432 29.5914 35.5 28.6339 35.5 27.5C35.5 26.1193 33.933 25 32 25C30.067 25 28.5 26.1193 28.5 27.5C28.5 28.6339 29.5568 29.5914 31.0052 29.8976C31.0034 29.9152 31.0021 29.9329 31.0012 29.9507L31.0005 29.967L31.0002 29.9812L31 30V31C31 31.5523 31.4477 32 32 32C32.5523 32 33 31.5523 33 31V30L32.9998 29.9825L32.9996 29.9716L32.9991 29.9586L32.9982 29.9387L32.9969 29.9214L32.9958 29.9082L32.9948 29.8976Z" fill="#565F89"/>
<path fill-rule="evenodd" clip-rule="evenodd" d="M39.5993 22.8173C39.2226 22.3035 38.6236 22 37.9865 22H10.0135C9.3764 22 8.7774 22.3035 8.4007 22.8173L2.38721 31.0175C2.13562 31.3605 2 31.7748 2 32.2002V42C0.895447 42 0 42.8954 0 44V46C0 47.1046 0.895447 48 2 48H46C47.1046 48 48 47.1046 48 46V44C48 42.8954 47.1046 42 46 42V32.2002C46 31.7748 45.8644 31.3605 45.6128 31.0175L39.5993 22.8173ZM36.7245 24C37.5024 24 38.2098 24.4511 38.5379 25.1566L40.8134 30.0489C40.9363 30.3131 41 30.601 41 30.8923V37C41 38.1046 40.1046 39 39 39H37V37C37 36.9654 36.9982 36.9313 36.9948 36.8976C38.4432 36.5914 39.5 35.6339 39.5 34.5C39.5 33.1193 37.933 32 36 32C34.067 32 32.5 33.1193 32.5 34.5C32.5 35.6339 33.5568 36.5914 35.0052 36.8976C35.0018 36.9313 35 36.9654 35 37V39H29V37C29 36.9654 28.9982 36.9313 28.9948 36.8976C30.4432 36.5914 31.5 35.6339 31.5 34.5C31.5 33.1193 29.933 32 28 32C26.067 32 24.5 33.1193 24.5 34.5C24.5 35.6339 25.5568 36.5914 27.0052 36.8976L27.0038 36.9125L27.002 36.937L27.0012 36.951C27.0008 36.9583 27.0005 36.9656 27.0004 36.9729C27.0001 36.9819 27 36.9909 27 37V39H21V37C21 36.9654 20.9982 36.9313 20.9948 36.8976C22.4432 36.5914 23.5 35.6339 23.5 34.5C23.5 33.1193 21.933 32 20 32C18.067 32 16.5 33.1193 16.5 34.5C16.5 35.6339 17.5568 36.5914 19.0052 36.8976C19.0018 36.9313 19 36.9654 19 37V39H13V37C13 36.9654 12.9982 36.9313 12.9948 36.8976C14.4432 36.5914 15.5 35.6339 15.5 34.5C15.5 33.1193 13.933 32 12 32C10.067 32 8.5 33.1193 8.5 34.5C8.5 35.6339 9.55676 36.5914 11.0052 36.8976C11.0018 36.9313 11 36.9654 11 37V39H9C7.89545 39 7 38.1046 7 37V30.8923C7 30.601 7.06366 30.3131 7.18658 30.0489L9.4621 25.1566C9.79016 24.4511 10.4976 24 11.2755 24H36.7245Z" fill="#565F89"/>
</g>
<defs>
<clipPath id="clip0_296_146">
<rect width="274" height="48" fill="white"/>
</clipPath>
</defs>
</svg>
