<svg width="64" height="64" viewBox="0 0 64 64" fill="none" xmlns="http://www.w3.org/2000/svg">
<path d="M29.974 23.0526C29.974 16.9485 25.0549 12 18.9869 12C12.9191 12 8 16.9485 8 23.0526C8 29.1569 12.9191 34.1052 18.9869 34.1052C20.7449 41.179 14.9299 48.3158 12 52H18.5922C29.7892 42.7842 30.0643 32.7222 29.9862 24.8457C29.98 24.2205 29.974 23.6216 29.974 23.0526Z" fill="white"/>
<path d="M55.974 23.0526C55.974 16.9485 51.0549 12 44.9869 12C38.9191 12 34 16.9485 34 23.0526C34 29.1569 38.9191 34.1052 44.9869 34.1052C46.7449 41.179 40.9299 48.3158 38 52H44.5922C55.7892 42.7842 56.0643 32.7222 55.9862 24.8457V24.8395C55.98 24.2166 55.974 23.6198 55.974 23.0526Z" fill="white"/>
</svg>
