<svg width="64" height="64" viewBox="0 0 64 64" fill="none" xmlns="http://www.w3.org/2000/svg">
<path d="M18.1311 8.34731C17.0433 8.1555 16.006 8.88184 15.8142 9.96963L8.34731 52.3164C8.1555 53.4041 8.88184 54.4415 9.96963 54.6333L17.8481 56.0225C18.9359 56.2143 19.9732 55.4879 20.165 54.4001L27.6319 12.0534C27.8237 10.9656 27.0973 9.9283 26.0096 9.73649L18.1311 8.34731ZM18.2477 13.445L24.1565 14.4869C24.7004 14.5828 25.0636 15.1014 24.9677 15.6453L24.6204 17.615C24.5245 18.1588 24.0058 18.522 23.4619 18.4261L17.5531 17.3842C17.0092 17.2883 16.646 16.7697 16.7419 16.2258L17.0892 14.2562C17.1851 13.7123 17.7038 13.3491 18.2477 13.445ZM11.1852 47.7396C11.2811 47.1957 11.7997 46.8326 12.3436 46.9285L18.2525 47.9703C18.7964 48.0662 19.1595 48.5849 19.0636 49.1288C18.9677 49.6727 18.4491 50.0359 17.9052 49.94L11.9963 48.8981C11.4524 48.8022 11.0893 48.2835 11.1852 47.7396ZM11.8227 49.8829L17.7315 50.9248C18.2754 51.0207 18.6386 51.5393 18.5427 52.0832C18.4468 52.6271 17.9281 52.9903 17.3842 52.8944L11.4754 51.8525C10.9315 51.7566 10.5683 51.2379 10.6642 50.694C10.7601 50.1501 11.2788 49.787 11.8227 49.8829Z" fill="white"/>
<path d="M31 9.00001C29.8954 9.00001 29 9.89544 29 11V54C29 55.1046 29.8954 56 31 56H39C40.1045 56 41 55.1046 41 54V11C41 9.89544 40.1045 9.00001 39 9.00001H31ZM32 14H38C38.5523 14 39 14.4477 39 15V17C39 17.5523 38.5523 18 38 18H32C31.4477 18 31 17.5523 31 17V15C31 14.4477 31.4477 14 32 14ZM31 49C31 48.4477 31.4477 48 32 48H38C38.5523 48 39 48.4477 39 49C39 49.5523 38.5523 50 38 50H32C31.4477 50 31 49.5523 31 49ZM32 51H38C38.5523 51 39 51.4477 39 52C39 52.5523 38.5523 53 38 53H32C31.4477 53 31 52.5523 31 52C31 51.4477 31.4477 51 32 51Z" fill="white"/>
<path d="M44 11C44 9.89544 44.8954 9.00001 46 9.00001H54C55.1045 9.00001 56 9.89544 56 11V54C56 55.1046 55.1045 56 54 56H46C44.8954 56 44 55.1046 44 54V11ZM46 15V17C46 17.5523 46.4477 18 47 18H53C53.5523 18 54 17.5523 54 17V15C54 14.4477 53.5523 14 53 14H47C46.4477 14 46 14.4477 46 15ZM47 48C46.4477 48 46 48.4477 46 49C46 49.5523 46.4477 50 47 50H53C53.5523 50 54 49.5523 54 49C54 48.4477 53.5523 48 53 48H47ZM46 52C46 52.5523 46.4477 53 47 53H53C53.5523 53 54 52.5523 54 52C54 51.4477 53.5523 51 53 51H47C46.4477 51 46 51.4477 46 52Z" fill="white"/>
</svg>
