<svg width="64" height="64" viewBox="0 0 64 64" fill="none" xmlns="http://www.w3.org/2000/svg">
<path d="M29.9034 10.3067C30.761 8.56442 33.239 8.56442 34.0966 10.3067L39.7017 21.6936C40.0423 22.3855 40.7006 22.8651 41.4622 22.976L53.9956 24.802C55.9133 25.0814 56.6791 27.4443 55.2914 28.8005L46.2221 37.664C45.6711 38.2025 45.4196 38.9784 45.5497 39.7389L47.6907 52.2543C48.0182 54.1693 46.0135 55.6297 44.2982 54.7255L33.088 48.8165C32.4069 48.4575 31.5931 48.4575 30.912 48.8165L19.7018 54.7255C17.9865 55.6297 15.9818 54.1693 16.3093 52.2543L18.4503 39.7389C18.5804 38.9784 18.3289 38.2025 17.7779 37.664L8.70863 28.8005C7.32094 27.4443 8.08668 25.0814 10.0044 24.802L22.5378 22.976C23.2994 22.8651 23.9577 22.3855 24.2983 21.6936L29.9034 10.3067ZM27.887 23.4602C26.9661 25.3312 25.1829 26.6329 23.1145 26.9342L13.8961 28.2772L20.5737 34.8033C22.0659 36.2617 22.7443 38.3596 22.393 40.4134L20.8189 49.615L29.0468 45.278C30.8953 44.3037 33.1047 44.3037 34.9532 45.278L43.1811 49.615L41.607 40.4134C41.2556 38.3596 41.9341 36.2617 43.4263 34.8033L50.1039 28.2772L40.8855 26.9342C38.8171 26.6329 37.0339 25.3312 36.113 23.4602L32 15.1046L27.887 23.4602Z" fill="white"/>
</svg>
