<svg width="64" height="64" viewBox="0 0 64 64" fill="none" xmlns="http://www.w3.org/2000/svg">
<path d="M28 10C28 8.89543 27.1046 8 26 8H10C8.89543 8 8 8.89543 8 10V26C8 27.1046 8.89543 28 10 28H14C15.1046 28 16 27.1046 16 26V16H26C27.1046 16 28 15.1046 28 14V10Z" fill="white"/>
<path d="M54 28C55.1046 28 56 27.1046 56 26V10C56 8.89543 55.1046 8 54 8H38C36.8954 8 36 8.89543 36 10V14C36 15.1046 36.8954 16 38 16H48V26C48 27.1046 48.8954 28 50 28H54Z" fill="white"/>
<path d="M36 54C36 55.1046 36.8954 56 38 56H54C55.1046 56 56 55.1046 56 54V38C56 36.8954 55.1046 36 54 36H50C48.8954 36 48 36.8954 48 38V48H38C36.8954 48 36 48.8954 36 50V54Z" fill="white"/>
<path d="M10 36C8.89543 36 8 36.8954 8 38V54C8 55.1046 8.89543 56 10 56H26C27.1046 56 28 55.1046 28 54V50C28 48.8954 27.1046 48 26 48H16V38C16 36.8954 15.1046 36 14 36H10Z" fill="white"/>
</svg>
