<svg width="64" height="64" viewBox="0 0 64 64" fill="none" xmlns="http://www.w3.org/2000/svg">
<path d="M54.7354 19.1855C52.4939 14.3394 47.5839 11.0549 42.4604 11.0011C39.6678 11.0011 37.0522 11.92 34.8054 13.6874C33.7889 14.4871 32.8478 15.4604 32 16.6009C31.1537 15.4624 30.2144 14.4853 29.2 13.6809C26.9519 11.8983 24.3344 10.964 21.5396 11.0011C16.4695 11.0549 11.5061 14.3394 9.26457 19.1855C6.91631 24.193 7.87696 29.9006 11.8263 34.8005C15.0819 39.108 30.1321 52.0846 30.6124 52.4616C30.986 52.7846 31.4663 53 32 53H32.0534C32.5337 53 33.014 52.8385 33.3876 52.4616C33.5477 52.3539 48.9182 39.108 52.1737 34.8005C56.123 29.9544 57.0837 24.2469 54.7354 19.1855ZM30.5648 47.1371C29.0483 45.8116 27.0383 44.0355 24.9449 42.1399C20.6045 38.2098 16.3655 34.1723 15.0174 32.3887L14.9798 32.3389L14.9406 32.2903C11.7722 28.3592 11.2998 24.2665 12.8861 20.8838L12.8906 20.8743L12.895 20.8647C14.5232 17.3447 18.1365 15.0374 21.582 15.0009L21.5927 15.0007C24.171 14.9665 26.7101 16.1897 28.7898 18.9873L32 23.3056L35.2102 18.9873C37.2591 16.2311 39.7953 15.0076 42.4393 15.0011C45.9222 15.0467 49.4761 17.3432 51.105 20.8647L51.1069 20.8689C52.7108 24.3258 52.215 28.4181 49.073 32.2735L49.0267 32.3303L48.9826 32.3887C47.6358 34.1706 43.3208 38.2724 38.9361 42.24C36.8221 44.1528 34.8016 45.9378 33.2996 47.2512C32.8031 47.6854 32.3642 48.0671 31.9984 48.3841C31.6 48.0395 31.1155 47.6186 30.5648 47.1371Z" fill="white"/>
</svg>
