<svg width="64" height="64" viewBox="0 0 64 64" fill="none" xmlns="http://www.w3.org/2000/svg">
<path d="M32.0534 53H32C31.4663 53 30.986 52.7846 30.6124 52.4616C30.1321 52.0846 15.0819 39.108 11.8263 34.8005C7.87696 29.9006 6.91631 24.193 9.26457 19.1855C11.5061 14.3394 16.4695 11.0549 21.5396 11.0011C25.5957 10.9472 29.2782 12.9395 32 16.6009C34.7218 12.9395 38.4043 11.0011 42.4604 11.0011C47.5839 11.0549 52.4939 14.3394 54.7354 19.1855C57.0837 24.2469 56.123 29.9544 52.1737 34.8005C48.9182 39.108 33.5477 52.3539 33.3876 52.4616C33.014 52.8385 32.5337 53 32.0534 53Z" fill="white"/>
</svg>
