<svg width="64" height="64" viewBox="0 0 64 64" fill="none" xmlns="http://www.w3.org/2000/svg">
<path d="M31.1805 24.8698C30.361 24.8698 29.587 24.9612 28.8585 25.144C28.1301 25.3269 27.322 25.6214 26.4341 26.0277L25 22.5845C25.8878 22.0766 26.935 21.6907 28.1415 21.4266C29.348 21.1422 30.5317 21 31.6927 21C33.1496 21 34.3447 21.1727 35.278 21.518C36.2341 21.8633 36.9854 22.3001 37.5317 22.8283C38.078 23.3564 38.4537 23.9354 38.6585 24.5651C38.8862 25.1948 39 25.7941 39 26.3629C39 26.9317 38.8976 27.4598 38.6927 27.9474C38.5106 28.4146 38.2715 28.8513 37.9756 29.2576C37.6797 29.6639 37.3382 30.0499 36.9512 30.4155C36.5642 30.7812 36.1886 31.1265 35.8244 31.4515C35.5512 31.6953 35.2667 31.9594 34.9707 32.2438C34.6748 32.5078 34.4016 32.7922 34.1512 33.097C33.9236 33.4017 33.7301 33.7267 33.5707 34.072C33.4114 34.397 33.3317 34.7322 33.3317 35.0776V35.4432C33.3317 35.6057 33.3431 35.7479 33.3659 35.8698H28.8585C28.813 35.6667 28.7789 35.4432 28.7561 35.1994V34.5291C28.7561 33.9603 28.8358 33.4524 28.9951 33.0055C29.1545 32.5383 29.3594 32.1117 29.6098 31.7258C29.8829 31.3195 30.1902 30.9437 30.5317 30.5983C30.8732 30.253 31.226 29.9178 31.5902 29.5928C32.1138 29.1256 32.5919 28.6685 33.0244 28.2216C33.4569 27.7544 33.6732 27.2262 33.6732 26.6371C33.6732 26.1496 33.4569 25.7331 33.0244 25.3878C32.6146 25.0425 32 24.8698 31.1805 24.8698Z" fill="white"/>
<path d="M34.1801 40.1966C34.1801 41.0904 33.8682 41.7811 33.2446 42.2687C32.6424 42.7562 31.9542 43 31.1801 43C30.4059 43 29.7069 42.7562 29.0833 42.2687C28.4811 41.7811 28.1801 41.0904 28.1801 40.1966C28.1801 39.3028 28.4811 38.6121 29.0833 38.1246C29.7069 37.6371 30.4059 37.3933 31.1801 37.3933C31.9542 37.3933 32.6424 37.6371 33.2446 38.1246C33.8682 38.6121 34.1801 39.3028 34.1801 40.1966Z" fill="white"/>
<path d="M56 32C56 45.2549 45.2549 56 32 56C18.7451 56 8 45.2549 8 32C8 18.7451 18.7451 8 32 8C45.2549 8 56 18.7451 56 32ZM32 50C41.9412 50 50 41.9412 50 32C50 22.0588 41.9412 14 32 14C22.0588 14 14 22.0588 14 32C14 41.9412 22.0588 50 32 50Z" fill="white"/>
</svg>
