<svg width="64" height="64" viewBox="0 0 64 64" fill="none" xmlns="http://www.w3.org/2000/svg">
<path d="M20.0135 8C18.9089 8 18.0135 8.89545 18.0135 10V24H45.9865V10C45.9865 8.89545 45.0911 8 43.9865 8H20.0135ZM21 12C21 11.4477 21.4477 11 22 11H32C32.5523 11 33 11.4477 33 12C33 12.5523 32.5523 13 32 13H22C21.4477 13 21 12.5523 21 12ZM21 16C21 15.4477 21.4477 15 22 15H29C29.5523 15 30 15.4477 30 16C30 16.5523 29.5523 17 29 17H22C21.4477 17 21 16.5523 21 16ZM32 16C32 15.4477 32.4477 15 33 15H40C40.5523 15 41 15.4477 41 16C41 16.5523 40.5523 17 40 17H33C32.4477 17 32 16.5523 32 16ZM21 20C21 19.4477 21.4477 19 22 19H26C26.5523 19 27 19.4477 27 20C27 20.5523 26.5523 21 26 21H22C21.4477 21 21 20.5523 21 20ZM29 20C29 19.4477 29.4477 19 30 19H34C34.5523 19 35 19.4477 35 20C35 20.5523 34.5523 21 34 21H30C29.4477 21 29 20.5523 29 20ZM37 20C37 19.4477 37.4477 19 38 19H42C42.5523 19 43 19.4477 43 20C43 20.5523 42.5523 21 42 21H38C37.4477 21 37 20.5523 37 20Z" fill="white"/>
<path d="M24.9948 37.8976C26.4432 37.5914 27.5 36.6339 27.5 35.5C27.5 34.1193 25.933 33 24 33C22.067 33 20.5 34.1193 20.5 35.5C20.5 36.6339 21.5568 37.5914 23.0052 37.8976C23.0018 37.9313 23 37.9654 23 38V39C23 39.5523 23.4477 40 24 40C24.5523 40 25 39.5523 25 39V38L24.9999 37.9903C24.9998 37.9756 24.9993 37.9609 24.9986 37.9463C24.9977 37.9299 24.9965 37.9137 24.9948 37.8976Z" fill="white"/>
<path d="M32.9948 37.8976C34.4432 37.5914 35.5 36.6339 35.5 35.5C35.5 34.1193 33.933 33 32 33C30.067 33 28.5 34.1193 28.5 35.5C28.5 36.6339 29.5568 37.5914 31.0052 37.8976C31.004 37.9098 31.0029 37.9221 31.0021 37.9343C31.0015 37.9434 31.001 37.9526 31.0007 37.9618L31.0002 37.9789L31 38V39C31 39.5523 31.4477 40 32 40C32.5523 40 33 39.5523 33 39V38C33 37.9654 32.9982 37.9313 32.9948 37.8976Z" fill="white"/>
<path d="M43.5 35.5C43.5 36.6339 42.4432 37.5914 40.9948 37.8976L40.9958 37.9082L40.9969 37.9214C40.9979 37.9337 40.9987 37.9461 40.9991 37.9586L40.9996 37.9716L40.9998 37.9825L41 38V39C41 39.5523 40.5523 40 40 40C39.4477 40 39 39.5523 39 39V38L39.0002 37.9812L39.0005 37.967L39.0012 37.9507C39.0021 37.9329 39.0034 37.9152 39.0052 37.8976C37.5568 37.5914 36.5 36.6339 36.5 35.5C36.5 34.1193 38.067 33 40 33C41.933 33 43.5 34.1193 43.5 35.5Z" fill="white"/>
<path d="M47.5993 30.8173C47.2226 30.3035 46.6236 30 45.9865 30H18.0135C17.3764 30 16.7774 30.3035 16.4007 30.8173L10.3872 39.0175C10.1356 39.3605 10 39.7748 10 40.2002V50C8.89545 50 8 50.8954 8 52V54C8 55.1046 8.89545 56 10 56H54C55.1046 56 56 55.1046 56 54V52C56 50.8954 55.1046 50 54 50V40.2002C54 39.7748 53.8644 39.3605 53.6128 39.0175L47.5993 30.8173ZM44.7245 32C45.5024 32 46.2098 32.4511 46.5379 33.1566L48.8134 38.0489C48.9363 38.3131 49 38.601 49 38.8923V45C49 46.1046 48.1046 47 47 47H45V45C45 44.9654 44.9982 44.9313 44.9948 44.8976C46.4432 44.5914 47.5 43.6339 47.5 42.5C47.5 41.1193 45.933 40 44 40C42.067 40 40.5 41.1193 40.5 42.5C40.5 43.6339 41.5568 44.5914 43.0052 44.8976C43.0018 44.9313 43 44.9654 43 45V47H37V45C37 44.9654 36.9982 44.9313 36.9948 44.8976C38.4432 44.5914 39.5 43.6339 39.5 42.5C39.5 41.1193 37.933 40 36 40C34.067 40 32.5 41.1193 32.5 42.5C32.5 43.6339 33.5568 44.5914 35.0052 44.8976L35.0038 44.9125L35.002 44.937L35.0012 44.951C35.0008 44.9583 35.0005 44.9656 35.0004 44.9729C35.0001 44.9819 35 44.9909 35 45V47H29V45C29 44.9654 28.9982 44.9313 28.9948 44.8976C30.4432 44.5914 31.5 43.6339 31.5 42.5C31.5 41.1193 29.933 40 28 40C26.067 40 24.5 41.1193 24.5 42.5C24.5 43.6339 25.5568 44.5914 27.0052 44.8976C27.0018 44.9313 27 44.9654 27 45V47H21V45C21 44.9654 20.9982 44.9313 20.9948 44.8976C22.4432 44.5914 23.5 43.6339 23.5 42.5C23.5 41.1193 21.933 40 20 40C18.067 40 16.5 41.1193 16.5 42.5C16.5 43.6339 17.5568 44.5914 19.0052 44.8976C19.0018 44.9313 19 44.9654 19 45V47H17C15.8954 47 15 46.1046 15 45V38.8923C15 38.601 15.0637 38.3131 15.1866 38.0489L17.4621 33.1566C17.7902 32.4511 18.4976 32 19.2755 32H44.7245Z" fill="white"/>
<path d="M15 25C15 24.4477 14.5523 24 14 24H12C11.4477 24 11 24.4477 11 25V29C11 29.5523 11.4477 30 12 30H14C14.5523 30 15 29.5523 15 29V28H49V29C49 29.5523 49.4477 30 50 30H52C52.5523 30 53 29.5523 53 29V27H54V32C54 32.5523 54.4477 33 55 33C55.5523 33 56 32.5523 56 32V26C56 25.4477 55.5523 25 55 25H53C53 24.4477 52.5523 24 52 24H50C49.4477 24 49 24.4477 49 25V26H15V25Z" fill="white"/>
</svg>
