<svg width="64" height="64" viewBox="0 0 64 64" fill="none" xmlns="http://www.w3.org/2000/svg">
<path d="M8 11C8 9.89543 8.89543 9 10 9H54C55.1046 9 56 9.89543 56 11V17C56 18.1046 55.1046 19 54 19H10C8.89543 19 8 18.1046 8 17V11Z" fill="white"/>
<path d="M8 47C8 45.8954 8.89543 45 10 45H54C55.1046 45 56 45.8954 56 47V53C56 54.1046 55.1046 55 54 55H10C8.89543 55 8 54.1046 8 53V47Z" fill="white"/>
<path d="M10 27C8.89543 27 8 27.8954 8 29V35C8 36.1046 8.89543 37 10 37H54C55.1046 37 56 36.1046 56 35V29C56 27.8954 55.1046 27 54 27H10Z" fill="white"/>
</svg>
