<svg width="64" height="64" viewBox="0 0 64 64" fill="none" xmlns="http://www.w3.org/2000/svg">
<path d="M26 14C26 10.6863 28.6863 8 32 8C35.3137 8 38 10.6863 38 14C38 17.3137 35.3137 20 32 20C28.6863 20 26 17.3137 26 14Z" fill="white"/>
<path d="M26 50C26 46.6863 28.6863 44 32 44C35.3137 44 38 46.6863 38 50C38 53.3137 35.3137 56 32 56C28.6863 56 26 53.3137 26 50Z" fill="white"/>
<path d="M32 26C28.6863 26 26 28.6863 26 32C26 35.3137 28.6863 38 32 38C35.3137 38 38 35.3137 38 32C38 28.6863 35.3137 26 32 26Z" fill="white"/>
</svg>
