<svg width="64" height="64" viewBox="0 0 64 64" fill="none" xmlns="http://www.w3.org/2000/svg">
<path d="M32 34C38.0751 34 43 29.0751 43 23C43 16.9249 38.0751 12 32 12C25.9249 12 21 16.9249 21 23C21 29.0751 25.9249 34 32 34Z" fill="white"/>
<path d="M40 36.6219H38.5089C36.5268 37.3221 34.3214 37.7203 32 37.7203C29.6786 37.7203 27.4821 37.3221 25.4911 36.6219H24C17.375 36.6219 12 40.7547 12 45.8487V48.7047C12 50.524 13.9196 52 16.2857 52H47.7143C50.0804 52 52 50.524 52 48.7047V45.8487C52 40.7547 46.625 36.6219 40 36.6219Z" fill="white"/>
</svg>
