<svg width="64" height="64" viewBox="0 0 64 64" fill="none" xmlns="http://www.w3.org/2000/svg">
<path d="M43.1997 19.3045C44.2667 18.4201 44.2667 16.58 43.1997 15.6956L35.0217 8.91701C33.7568 7.86855 32 8.91775 32 10.7215V13.5C20.402 13.5 11 22.902 11 34.5C11 46.098 20.402 55.5 32 55.5C43.598 55.5 53 46.098 53 34.5C53 33.0585 52.8547 31.6509 52.5781 30.2911C52.1376 28.1261 49.7542 27.1572 47.713 28.0027C45.6726 28.8479 44.7707 31.2032 44.9545 33.404C44.9846 33.7654 45 34.1309 45 34.5C45 41.6797 39.1797 47.5 32 47.5C24.8203 47.5 19 41.6797 19 34.5C19 27.3203 24.8203 21.5 32 21.5V24.2786C32 26.0823 33.7568 27.1315 35.0217 26.083L43.1997 19.3045Z" fill="white"/>
</svg>
