<svg width="64" height="64" viewBox="0 0 64 64" fill="none" xmlns="http://www.w3.org/2000/svg">
<path d="M53.1997 18.8044C54.2668 17.92 54.2668 16.0799 53.1997 15.1955L45.0217 8.41698C43.7568 7.36852 42 8.41772 42 10.2214V13H10C8.89543 13 8 13.8954 8 15V29C8 30.1046 8.89543 31 10 31H14C15.1046 31 16 30.1046 16 29V21H42V23.7786C42 25.5823 43.7568 26.6315 45.0217 25.583L53.1997 18.8044Z" fill="white"/>
<path d="M48 43.0002V35.0002C48 33.8956 48.8954 33.0002 50 33.0002H54C55.1046 33.0002 56 33.8956 56 35.0002V49.0002C56 50.1047 55.1046 51.0002 54 51.0002H22V53.7787C22 55.5824 20.2432 56.6316 18.9783 55.5832L10.8003 48.8046C9.73322 47.9202 9.73322 46.0801 10.8003 45.1957L18.9783 38.4171C20.2432 37.3687 22 38.4179 22 40.2216V43.0002H48Z" fill="white"/>
</svg>
