<svg width="64" height="64" viewBox="0 0 64 64" fill="none" xmlns="http://www.w3.org/2000/svg">
<path d="M20.6131 17.4095L16.0696 15.4555C15.118 15.0462 14.0131 15.4175 13.4953 16.3204L9.27485 23.6801C8.75663 24.5838 8.98978 25.7353 9.81786 26.362L13.7706 29.3533V34.6467L9.81786 37.638C8.98978 38.2647 8.75663 39.4162 9.27485 40.3199L13.4953 47.6796C14.0131 48.5825 15.118 48.9538 16.0696 48.5445L20.6131 46.5905L25.1594 49.2409L25.7526 54.185C25.8768 55.2208 26.7489 56 27.7839 56H36.2161C37.2511 56 38.1232 55.2208 38.2474 54.185L38.8406 49.2409L43.3869 46.5905L47.9304 48.5445C48.882 48.9538 49.9869 48.5825 50.5047 47.6796L54.7252 40.3199C55.2434 39.4162 55.0102 38.2647 54.1821 37.638L50.2294 34.6467V29.3533L54.1821 26.362C55.0102 25.7353 55.2434 24.5838 54.7252 23.6801L50.5047 16.3204C49.9869 15.4175 48.882 15.0462 47.9304 15.4555L43.3869 17.4095L38.8406 14.7591L38.2474 9.81499C38.1232 8.77915 37.2511 8 36.2161 8H27.7839C26.7489 8 25.8768 8.77915 25.7526 9.81499L25.1594 14.7591L20.6131 17.4095ZM32 40.2506C27.4798 40.2506 23.8155 36.5567 23.8155 32C23.8155 27.4433 27.4798 23.7494 32 23.7494C36.5202 23.7494 40.1845 27.4433 40.1845 32C40.1845 36.5567 36.5202 40.2506 32 40.2506Z" fill="white"/>
</svg>
