<svg width="112" height="64" viewBox="0 0 112 64" fill="none" xmlns="http://www.w3.org/2000/svg">
<path d="M31 56C44.2548 56 55 45.2549 55 32C55 18.7451 44.2548 8 31 8C17.7452 8 7 18.7451 7 32C7 45.2549 17.7452 56 31 56ZM42.4092 40.557L39.5569 43.4093C38.7693 44.1969 37.4923 44.1969 36.7047 43.4093L31 37.7046L25.2953 43.4093C24.5077 44.1969 23.2307 44.1969 22.4431 43.4093L19.5908 40.5569C18.8031 39.7693 18.8031 38.4923 19.5908 37.7046L25.2953 32L19.5908 26.2954C18.8031 25.5077 18.8031 24.2307 19.5908 23.4431L22.4431 20.5907C23.2307 19.8031 24.5078 19.8031 25.2954 20.5907L31 26.2954L36.7046 20.5907C37.4922 19.8031 38.7693 19.8031 39.5569 20.5907L42.4092 23.443C43.1969 24.2307 43.1969 25.5077 42.4092 26.2954L36.7047 32L42.4092 37.7046C43.1969 38.4923 43.1969 39.7693 42.4092 40.557Z" fill="white"/>
<path d="M61.0001 32C61.0001 37.8823 59.3071 43.3692 56.3818 48H81.0001C89.8366 48 97.0001 40.8366 97.0001 32C97.0001 23.1634 89.8366 16 81.0001 16H56.3818C59.3071 20.6308 61.0001 26.1177 61.0001 32Z" fill="white"/>
</svg>
