<svg width="112" height="64" viewBox="0 0 112 64" fill="none" xmlns="http://www.w3.org/2000/svg">
<path d="M105 32C105 45.2549 94.2549 56 81 56C67.7451 56 57 45.2549 57 32C57 18.7451 67.7451 8 81 8C94.2549 8 105 18.7451 105 32ZM96.8325 27.0712C97.6136 26.29 97.6136 25.0238 96.8326 24.2427L94.0043 21.4143C93.2231 20.6332 91.9569 20.6332 91.1758 21.4143L78.4043 34.1857L72.071 27.8525C71.2899 27.0714 70.0237 27.0714 69.2426 27.8525L66.4142 30.6809C65.6331 31.462 65.6331 32.7283 66.4142 33.5094L76.99 44.0852C77.7711 44.8663 79.0374 44.8663 79.8185 44.0852L96.8325 27.0712Z" fill="white"/>
<path d="M31 16H55.6183C52.693 20.6308 51 26.1177 51 32C51 37.8823 52.693 43.3692 55.6183 48H31C22.1634 48 15 40.8366 15 32C15 23.1634 22.1634 16 31 16Z" fill="white"/>
</svg>
