<svg width="64" height="64" viewBox="0 0 64 64" fill="none" xmlns="http://www.w3.org/2000/svg">
<path d="M34.75 23.5096C34.75 24.0094 34.7396 24.7373 34.7188 25.6934C34.6979 26.6277 34.6562 27.6489 34.5938 28.7571C34.5312 29.8435 34.4479 30.9408 34.3438 32.0488C34.2396 33.1353 34.1146 34.0804 33.9688 34.8844C33.9318 34.9133 33.8866 34.9423 33.8333 34.9712C33.7664 35.0074 33.6865 35.0437 33.5938 35.08C33.5085 35.1133 33.4205 35.1438 33.3298 35.1715C33.2432 35.1979 33.1541 35.2217 33.0625 35.2429C32.875 35.2864 32.6875 35.319 32.5 35.3407C32.4506 35.3464 32.4026 35.3514 32.3561 35.3556C32.3297 35.358 32.3038 35.3601 32.2784 35.3621C32.2227 35.3662 32.1691 35.3693 32.1178 35.3711C32.0771 35.3726 32.0378 35.3733 32 35.3733C31.3959 35.3733 30.8854 35.2755 30.4688 35.08C30.0729 34.8844 29.8229 34.5042 29.7188 33.9392C29.6146 33.4395 29.5209 32.679 29.4375 31.6578C29.4192 31.3578 29.4009 31.0503 29.3826 30.7352C29.3634 30.4075 29.3442 30.0715 29.3251 29.7275C29.3 29.2767 29.275 28.812 29.25 28.3334C29.1875 27.1383 29.1354 25.9541 29.0938 24.7808C29.0729 23.6074 29.0625 22.6079 29.0625 21.7822C29.4791 21.5432 29.9479 21.3585 30.4688 21.2281C30.6365 21.181 30.8032 21.1412 30.969 21.1088C31.3384 21.0363 31.7029 21 32.0625 21C32.9166 21 33.5729 21.2064 34.0312 21.6193C34.5104 22.0321 34.75 22.6622 34.75 23.5096Z" fill="white"/>
<path d="M29 39.9363C29 39.0454 29.2604 38.3175 29.7812 37.7526C30.3229 37.1659 31.0625 36.8726 32 36.8726C32.9375 36.8726 33.6666 37.1659 34.1875 37.7526C34.7291 38.3175 35 39.0454 35 39.9363C35 40.8271 34.7291 41.5659 34.1875 42.1526C33.6666 42.7175 32.9375 43 32 43C31.0625 43 30.3229 42.7175 29.7812 42.1526C29.2604 41.5659 29 40.8271 29 39.9363Z" fill="white"/>
<path d="M56 32C56 45.2549 45.2549 56 32 56C18.7451 56 8 45.2549 8 32C8 18.7451 18.7451 8 32 8C45.2549 8 56 18.7451 56 32ZM32 50C41.9412 50 50 41.9412 50 32C50 22.0588 41.9412 14 32 14C22.0588 14 14 22.0588 14 32C14 41.9412 22.0588 50 32 50Z" fill="white"/>
</svg>
