<svg width="64" height="64" viewBox="0 0 64 64" fill="none" xmlns="http://www.w3.org/2000/svg">
<path d="M32 20C33.1046 20 34 20.8954 34 22V31.1716L41.4142 38.5858C42.1953 39.3668 42.1953 40.6332 41.4142 41.4142C40.6332 42.1953 39.3668 42.1953 38.5858 41.4142L30 32.8284V22C30 20.8954 30.8954 20 32 20Z" fill="white"/>
<path d="M32 56C45.2549 56 56 45.2549 56 32C56 18.7451 45.2549 8 32 8C18.7451 8 8 18.7451 8 32C8 45.2549 18.7451 56 32 56ZM50 32C50 41.9412 41.9412 50 32 50C22.0588 50 14 41.9412 14 32C14 22.0588 22.0588 14 32 14C41.9412 14 50 22.0588 50 32Z" fill="white"/>
</svg>
